<svg id="Layer_1" data-name="Layer 1" xmlns="http://www.w3.org/2000/svg" viewBox="0 0 688.77 228.07"><defs><style>.cls-1{fill:#792a27;}</style></defs><title>Logo_Loterie_BRUN</title><path class="cls-1" d="M251.57,49.53h18v67.92h-18Z" transform="translate(-58.54 -48.1)"/><path class="cls-1" d="M275.37,93.6c0-15.16,11.63-25,26-25,14.58,0,25.95,9.86,25.95,25s-11.37,25.2-25.95,25.2C286.92,118.8,275.37,108.69,275.37,93.6Zm33.71,0c0-5.81-3.79-9-7.75-9s-7.75,3.2-7.75,9,3.79,9.19,7.75,9.19S309.08,99.42,309.08,93.6Z" transform="translate(-58.54 -48.1)"/><path class="cls-1" d="M353.32,69.92h12.05V84.59H353.32V96.72c0,4.81,3.62,6.57,8.34,6.57a25.7,25.7,0,0,0,4.3-.42v15a36.74,36.74,0,0,1-8.77.93c-14.32,0-21.23-8.43-21.23-21V84.59h-6.49V69.92H336V59h17.36Z" transform="translate(-58.54 -48.1)"/><path class="cls-1" d="M416.71,98.41H386.88c2.28,4.55,7.5,6.65,13.15,6.65,5.14,0,9.69-1.68,13.9-3.53v13.73a37.51,37.51,0,0,1-16.43,3.54c-18.2,0-28.14-10.7-28.14-25,0-14.83,10.61-25.19,24.69-25.19,12.72,0,23.09,8.42,23.09,24.35A34.44,34.44,0,0,1,416.71,98.41Zm-16.6-10A6,6,0,0,0,394,82.31c-3.54,0-6.49,2.36-7.75,6.15Z" transform="translate(-58.54 -48.1)"/><path class="cls-1" d="M423.28,69.92h14.33l1.77,6.75h.17A14,14,0,0,1,452,69.33a13.41,13.41,0,0,1,3.88.51V86.52a21.26,21.26,0,0,0-4.47-.5c-5.31,0-10.11,2.53-10.11,11v20.39h-18Z" transform="translate(-58.54 -48.1)"/><path class="cls-1" d="M459.64,57.37A9.36,9.36,0,1,1,469,66.64,9.26,9.26,0,0,1,459.64,57.37ZM460,69.92h18v47.53H460Z" transform="translate(-58.54 -48.1)"/><path class="cls-1" d="M531,98.41H501.2c2.28,4.55,7.5,6.65,13.15,6.65,5.14,0,9.69-1.68,13.9-3.53v13.73a37.54,37.54,0,0,1-16.43,3.54c-18.2,0-28.14-10.7-28.14-25,0-14.83,10.61-25.19,24.69-25.19,12.72,0,23.09,8.42,23.09,24.35A34.44,34.44,0,0,1,531,98.41Zm-16.6-10a6,6,0,0,0-6.15-6.15c-3.54,0-6.49,2.36-7.75,6.15Z" transform="translate(-58.54 -48.1)"/><path class="cls-1" d="M298.17,180.65v32h-18v-27.3c0-3.88-1.68-5.57-5-5.57-3.45,0-5.56,2.28-5.56,5.31v27.56h-18V165.14h14l1.77,6.24h.34a16.31,16.31,0,0,1,14.07-7.59C292.11,163.79,298.17,169.94,298.17,180.65Z" transform="translate(-58.54 -48.1)"/><path class="cls-1" d="M332.56,210.4a22.92,22.92,0,0,1-12.11,3.31,19.63,19.63,0,0,1-11-2.93,12.8,12.8,0,0,1-6-11.17A13.56,13.56,0,0,1,309,188.45c3.6-2.65,8.52-3.51,13.06-3.51a34.26,34.26,0,0,1,7.1.76V185a4.43,4.43,0,0,0-1.33-3.41c-1.42-1.32-3.78-1.7-6.24-1.7a36,36,0,0,0-13.53,3.12V168.48a43.55,43.55,0,0,1,17.22-3.4c6.72,0,12.87,1.51,16.84,4.54,4.16,3.12,5.77,7.47,5.77,13.34v13.43c0,1.9.66,3,2.37,3a4.92,4.92,0,0,0,2.17-.57v12.87c-2,1.14-5.2,1.8-8.8,1.8-3.88,0-7.76-.76-10.88-3.12Zm-3.4-15.52a14.9,14.9,0,0,0-2.75-.28c-2.46,0-4.73.94-4.73,3.4,0,2.27,2,3.31,4.17,3.31a9.38,9.38,0,0,0,3.31-.66Z" transform="translate(-58.54 -48.1)"/><path class="cls-1" d="M377,165.14h12.05V179.8H377v12.14c0,4.8,3.62,6.57,8.34,6.57a26.8,26.8,0,0,0,4.3-.42v15a36.8,36.8,0,0,1-8.77.93c-14.32,0-21.23-8.43-21.23-21V179.8h-6.49V165.14h6.49V154.19H377Z" transform="translate(-58.54 -48.1)"/><path class="cls-1" d="M396.05,152.58a9.35,9.35,0,1,1,9.35,9.27A9.25,9.25,0,0,1,396.05,152.58Zm.33,12.56h18v47.53h-18Z" transform="translate(-58.54 -48.1)"/><path class="cls-1" d="M419.9,188.82c0-15.17,11.63-25,26-25,14.58,0,25.95,9.86,25.95,25S460.44,214,445.86,214C431.45,214,419.9,203.9,419.9,188.82Zm33.71,0c0-5.81-3.79-9-7.75-9s-7.75,3.21-7.75,9,3.79,9.19,7.75,9.19S453.61,194.63,453.61,188.82Z" transform="translate(-58.54 -48.1)"/><path class="cls-1" d="M524.21,180.65v32h-18v-27.3c0-3.88-1.68-5.57-5-5.57-3.45,0-5.56,2.28-5.56,5.31v27.56h-18V165.14h14l1.77,6.24h.34a16.31,16.31,0,0,1,14.07-7.59C518.14,163.79,524.21,169.94,524.21,180.65Z" transform="translate(-58.54 -48.1)"/><path class="cls-1" d="M559.07,210.36a23.24,23.24,0,0,1-12.3,3.36,20,20,0,0,1-11.15-3,13,13,0,0,1-6-11.34,13.76,13.76,0,0,1,5.57-11.34c3.65-2.7,8.65-3.56,13.26-3.56a34.57,34.57,0,0,1,7.21.77v-.67a4.45,4.45,0,0,0-1.35-3.46c-1.44-1.35-3.84-1.73-6.34-1.73a36.39,36.39,0,0,0-13.74,3.17v-14.8a44.18,44.18,0,0,1,17.49-3.46c6.82,0,13.07,1.54,17.11,4.61,4.22,3.17,5.86,7.59,5.86,13.55v13.65c0,1.92.67,3.07,2.4,3.07a5.11,5.11,0,0,0,2.21-.57v13.07a19.12,19.12,0,0,1-8.94,1.82c-3.94,0-7.88-.77-11-3.17Zm-3.46-15.76a15.47,15.47,0,0,0-2.79-.29c-2.5,0-4.8,1-4.8,3.46,0,2.31,2,3.37,4.23,3.37a9.4,9.4,0,0,0,3.36-.68Z" transform="translate(-58.54 -48.1)"/><path class="cls-1" d="M585.31,144.75h18v67.92h-18Z" transform="translate(-58.54 -48.1)"/><path class="cls-1" d="M656.47,193.62H626.64c2.27,4.55,7.5,6.66,13.14,6.66,5.14,0,9.69-1.68,13.91-3.54v13.74A37.57,37.57,0,0,1,637.26,214c-18.21,0-28.15-10.71-28.15-25,0-14.83,10.62-25.2,24.69-25.2,12.72,0,23.09,8.43,23.09,24.36A35.6,35.6,0,0,1,656.47,193.62Zm-16.6-9.94a6,6,0,0,0-6.15-6.15c-3.54,0-6.49,2.36-7.76,6.15Z" transform="translate(-58.54 -48.1)"/><path class="cls-1" d="M135.37,59a76.83,76.83,0,0,0,0,153.66,47.57,47.57,0,0,0,47.56-47.56c0-26.27-18.29-48.09-47.56-47.56-10.1.18-18.61-6.69-18.3-18.3S128.68,82,139.29,81.49c25.56-1.13,44.43,13.87,55.21,35.53a72.35,72.35,0,0,1,6.81,30.48c0,15.42-5.55,28.85-14.26,40.13a2,2,0,0,0,0,2.62,1.82,1.82,0,0,0,2.57,0A76.83,76.83,0,0,0,135.37,59Zm0,76.83a29.27,29.27,0,1,1-29.27,29.27A29.27,29.27,0,0,1,135.37,135.84Z" transform="translate(-58.54 -48.1)"/><path class="cls-1" d="M251.57,272.31V251.75a2.71,2.71,0,0,1,3-3h11c5.07,0,7.66,3.23,7.66,6.78a5.9,5.9,0,0,1-4.59,6.09,6.45,6.45,0,0,1,5.11,6.54c0,4-2.68,7.17-7.74,7.17H254.56A2.72,2.72,0,0,1,251.57,272.31Zm12.76-12.87a2.94,2.94,0,1,0,0-5.86h-7.1v5.86Zm.2,11.08c2.15,0,3.43-1.23,3.43-3.15a3.11,3.11,0,0,0-3.43-3.11h-7.3v6.26Z" transform="translate(-58.54 -48.1)"/><path class="cls-1" d="M282,272.79V251.31a2.86,2.86,0,0,1,2.87-2.83,2.81,2.81,0,0,1,2.79,2.83v21.48a2.83,2.83,0,0,1-2.79,2.83A2.87,2.87,0,0,1,282,272.79Z" transform="translate(-58.54 -48.1)"/><path class="cls-1" d="M296.89,272.31V251.75a2.71,2.71,0,0,1,3-3h13.63a2.43,2.43,0,1,1,0,4.86h-11v5.78h10.68a2.43,2.43,0,1,1,0,4.86H302.55v6.18h11a2.45,2.45,0,1,1,0,4.9H299.88A2.72,2.72,0,0,1,296.89,272.31Z" transform="translate(-58.54 -48.1)"/><path class="cls-1" d="M341.6,274.15l-11.83-16.66v15.3a2.83,2.83,0,0,1-2.79,2.83,2.87,2.87,0,0,1-2.87-2.83v-20.6a3.71,3.71,0,0,1,6.73-2.15L342.24,266V251.31a2.83,2.83,0,1,1,5.66,0v20.85a3.47,3.47,0,0,1-6.3,2Z" transform="translate(-58.54 -48.1)"/><path class="cls-1" d="M371.29,272.79v-21a2.71,2.71,0,0,1,3-3h9.45c5.78,0,8.92,3.91,8.92,8.57s-3.18,8.49-8.92,8.49H377v7a2.83,2.83,0,0,1-2.79,2.83A2.87,2.87,0,0,1,371.29,272.79ZM383,253.62h-6V261h6a3.68,3.68,0,1,0,0-7.34Z" transform="translate(-58.54 -48.1)"/><path class="cls-1" d="M400.15,272.31v-21a2.85,2.85,0,0,1,2.86-2.83,2.81,2.81,0,0,1,2.79,2.83v19.05h9.05a2.49,2.49,0,0,1,0,5H403.13A2.71,2.71,0,0,1,400.15,272.31Z" transform="translate(-58.54 -48.1)"/><path class="cls-1" d="M424,251.35a2.87,2.87,0,0,1,5.74,0v13.19c0,3.71,2,6.26,6.17,6.26s6.1-2.55,6.1-6.26V251.35a2.87,2.87,0,0,1,5.74,0V264.7c0,6.62-3.78,11.12-11.84,11.12S424,271.28,424,264.74Z" transform="translate(-58.54 -48.1)"/><path class="cls-1" d="M455.9,271a2.66,2.66,0,0,1,2.63-2.67,2.49,2.49,0,0,1,1.51.48,11.51,11.51,0,0,0,6.7,2.11c3.11,0,4.62-1.47,4.62-3,0-2-2.31-2.67-5.38-3.39-4.34-1-9.92-2.19-9.92-8.13,0-4.42,3.82-8,10.48-8a16,16,0,0,1,8.25,2.19,2.57,2.57,0,0,1,1.32,2.24,2.65,2.65,0,0,1-2.59,2.63,2.48,2.48,0,0,1-1.36-.4,12.33,12.33,0,0,0-6-1.72c-2.95,0-4.3,1.12-4.3,2.71,0,1.8,2.23,2.36,5.3,3.07,4.38,1,10,2.31,10,8.21,0,4.87-3.47,8.53-10.64,8.53a15.91,15.91,0,0,1-9.37-2.67A2.64,2.64,0,0,1,455.9,271Z" transform="translate(-58.54 -48.1)"/><path class="cls-1" d="M523.09,273.31a2.52,2.52,0,0,1-2.19,2.83,2.35,2.35,0,0,1-2.23-.88l-.68-.79a15,15,0,0,1-6.34,1.35c-8,0-13.86-5.74-13.86-13.75s5.85-13.75,13.86-13.75,13.91,5.74,13.91,13.75a13.62,13.62,0,0,1-3.46,9.37l.48.56A2.43,2.43,0,0,1,523.09,273.31Zm-8.65-2.95-1.55-1.83a2.43,2.43,0,0,1-.52-1.28,2.48,2.48,0,0,1,2.15-2.83,2.31,2.31,0,0,1,2.24.84l1.63,1.87a9.46,9.46,0,0,0,1.36-5.06c0-5-3.19-8.73-8.1-8.73s-8,3.75-8,8.73,3.15,8.73,8,8.73A8.82,8.82,0,0,0,514.44,270.36Z" transform="translate(-58.54 -48.1)"/><path class="cls-1" d="M533.53,251.35a2.87,2.87,0,0,1,5.74,0v13.19c0,3.71,2,6.26,6.18,6.26s6.1-2.55,6.1-6.26V251.35a2.87,2.87,0,0,1,5.74,0V264.7c0,6.62-3.79,11.12-11.84,11.12s-11.92-4.54-11.92-11.08Z" transform="translate(-58.54 -48.1)"/><path class="cls-1" d="M566.49,272.31V251.75a2.71,2.71,0,0,1,3-3h13.63a2.43,2.43,0,1,1,0,4.86h-11v5.78h10.68a2.43,2.43,0,1,1,0,4.86H572.15v6.18h11a2.45,2.45,0,1,1,0,4.9H569.48A2.72,2.72,0,0,1,566.49,272.31Z" transform="translate(-58.54 -48.1)"/><path class="cls-1" d="M606,272.31a2.51,2.51,0,0,1,2.52-2.51,2.37,2.37,0,0,1,1.07.24,4.62,4.62,0,0,0,2.59.76,4,4,0,0,0,4.15-4.26V251.31a2.83,2.83,0,1,1,5.66,0v15.31c0,6.29-3.91,9.2-9.37,9.2a10.19,10.19,0,0,1-5.18-1.31A2.43,2.43,0,0,1,606,272.31Z" transform="translate(-58.54 -48.1)"/><path class="cls-1" d="M643.85,248.32c8,0,13.91,5.74,13.91,13.75s-5.86,13.75-13.91,13.75S630,270.08,630,262.07,635.84,248.32,643.85,248.32Zm0,5c-4.91,0-8.05,3.75-8.05,8.73s3.14,8.73,8.05,8.73,8.09-3.79,8.09-8.73S648.75,253.34,643.85,253.34Z" transform="translate(-58.54 -48.1)"/><path class="cls-1" d="M665.72,251.35a2.87,2.87,0,0,1,5.74,0v13.19c0,3.71,2,6.26,6.18,6.26s6.1-2.55,6.1-6.26V251.35a2.87,2.87,0,0,1,5.74,0V264.7c0,6.62-3.79,11.12-11.84,11.12s-11.92-4.54-11.92-11.08Z" transform="translate(-58.54 -48.1)"/><path class="cls-1" d="M698.72,272.31V251.75a2.71,2.71,0,0,1,3-3h13.63a2.43,2.43,0,1,1,0,4.86h-11v5.78h10.68a2.43,2.43,0,1,1,0,4.86H704.38v6.18h11a2.45,2.45,0,1,1,0,4.9H701.71A2.72,2.72,0,0,1,698.72,272.31Z" transform="translate(-58.54 -48.1)"/><path class="cls-1" d="M746.75,271.16a2.79,2.79,0,0,1-2.16,4.46,2.94,2.94,0,0,1-2.35-1.19l-6-8.61H731.6v7a2.83,2.83,0,0,1-2.79,2.83,2.87,2.87,0,0,1-2.87-2.83v-21a2.71,2.71,0,0,1,3-3h9.45c5.54,0,8.92,3.63,8.92,8.57a7.73,7.73,0,0,1-5.06,7.69ZM731.6,261h5.94a3.68,3.68,0,1,0,0-7.34H731.6Z" transform="translate(-58.54 -48.1)"/></svg>