<svg id="Calque_1" data-name="Calque 1" xmlns="http://www.w3.org/2000/svg" viewBox="0 0 330.7 298.92"><defs><style>.cls-1{fill:#8c2622;}.cls-2{fill:#fff;}</style></defs><title>Logo_Culture1060_BRUN</title><path class="cls-1" d="M305,489.4a2.15,2.15,0,0,0-3.79-1.23,2.41,2.41,0,0,0-.54.78,14.94,14.94,0,0,1-.25,3.09,6.53,6.53,0,0,1-1.6,2.34,8.23,8.23,0,0,1-2.76,2.34c-2.08.75-4.15,2.58-6.57.6a30.32,30.32,0,0,0-2.86-1.58,6.58,6.58,0,0,1-1.51-1.47,28.43,28.43,0,0,1-1.79-2.55c-.4-.64-.73-1.33-1.09-2-.17-.32-.32-.65-.5-1s-.62-.69-.63-1c-.08-2.21-1.66-3.45-3.05-4.79-1-1-4.2-.76-4.92.49s-1.57,2-1.91,3.38a41.71,41.71,0,0,1-2.16,5.27,8.88,8.88,0,0,0-.37,1.94c-.18,1.15-.32,2.3-.49,3.45a43,43,0,0,0-.75,5c-.13,3.66,0,7.32-.11,11,0,1.29-.59,2.56-.64,3.85-.09,2.52-.09,5.06,0,7.58.07,1.27.59,2.5.77,3.77.32,2.3.48,4.63.84,6.92.64,4.15,1.45,8.27,2.07,12.42.53,3.59,1.05,7.26-.46,10.71a13.81,13.81,0,0,1-5.91,6.83c-.25.14-.45.37-.69.53-.73.5-1.26.57-1.74-.43a26.35,26.35,0,0,1-2.49-10.86,204.13,204.13,0,0,1,.36-21.71c.5-6.1,1-12.19.93-18.3a36.41,36.41,0,0,0-1.35-9.93,12.6,12.6,0,0,1-.37-2.46c-.13-1.4,0-2.82-.93-4.06-.27-.37-.19-1-.34-1.44-.29-.89-.62-1.76-1-2.64-.07-.19-.19-.37-.26-.56-.54-1.54-1-3.1-1.62-4.63-.76-2.06-3.31-3.41-5.28-2.57a3,3,0,0,0-1.61,2c-.6,4.19-3,6.68-6.94,7.78-1,.28-2.69-.73-3.17-1.7a13,13,0,0,1-1.44-6.61,2,2,0,0,0-1.33-2,6.72,6.72,0,0,0-6.46.81,19.15,19.15,0,0,1-1.78,1.28,8.3,8.3,0,0,0-2.44,3c-1.85,3-2.57,6.32-3.37,9.61s-1.33,6.84-1.82,10.29c-.54,3.78-.68,7.62-1.42,11.35-.61,3.1-1.44,6.23-3.8,8.66a4.08,4.08,0,0,1-5.77.24c-2.85-2.44-3.47-5.74-3.41-9.13a39.42,39.42,0,0,1,1.21-10.62c.53-1.77.41-3.73.85-5.54a19.19,19.19,0,0,1,1.68-3.67c.55-1.11,1.17-2.18,1.71-3.29a83.71,83.71,0,0,0,3.78-8.1c.82-2.27,1.45-4.71.36-7.2a3.8,3.8,0,0,0-4.62-2.08c-2.66.84-4.36,2.86-5.95,4.89-2.31,3-4.45,6.07-6.53,9.21-1.63,2.48-2.9,5.21-4.62,7.62a17.62,17.62,0,0,1-4.06,3.78c-3.53,2.54-7.51,1.9-11.39,1.13-2.23-.44-4-4.29-3.14-6.41a5.56,5.56,0,0,0,.44-1.42c.32-3,1.87-5.58,3.47-8a62.77,62.77,0,0,1,6.21-8c2.11-2.31,4.66-4.21,7-6.33,2-1.85,4.1-3.66,6-5.66a56.92,56.92,0,0,0,4.56-5.7,14.54,14.54,0,0,0,1.83-3.91c.84-3.13,1.87-6.27,1.35-9.58-.48-3-1.31-5.91-4.45-7.44-2.25-1.1-5.71-.35-7.49,1.2-2.29,2-3.75,4.61-5.31,7.15-1.08,1.76-2.14,3.56-4,4.7-.14.09-.25.27-.39.3-2.95.56-5.9,1-8.76-.4a7.39,7.39,0,0,1-2.73-2.6c-1.58-2.22-.49-4.81,1-6.52,1.81-2.13,4.36-3.24,6.82-4.42a46.23,46.23,0,0,0,9.05-5.13c2.67-2.14,2.82-7.39.65-8.75a4.59,4.59,0,0,0-2.14-.82,17.56,17.56,0,0,0-4.47.27,42.88,42.88,0,0,0-5.93,1.86c-2.92,1.1-5.91,1.9-9,1.37-2.25-.38-4.67-1.19-5.54-3.52a7.57,7.57,0,0,1-.08-4.95A11.78,11.78,0,0,1,169,418.5a40.14,40.14,0,0,0,5.57-2.33,8.54,8.54,0,0,0,4.41-6.13,19,19,0,0,0,.39-7.4c-.81-4.22-2.52-7.65-6.72-9.49a56.36,56.36,0,0,1-5.3-3c-2.05-1.16-4.14-2.26-6.12-3.53a18,18,0,0,1-3.44-2.83c-1.38-1.51-.27-4.36,1.63-5,3.1-1.09,6.16-.57,9.23-.09,2.21.35,4.37.71,6.32-.84a2.39,2.39,0,0,1,.95-.27,1.63,1.63,0,0,0,1-2.73c-2.14-3-5.26-4.78-8.27-6.65-2.7-1.68-5.51-3.2-8.29-4.76-2.08-1.16-4.26-2.17-6.29-3.41-3.53-2.15-7.13-4.23-10.09-7.17-2.35-2.34-4.8-4.62-6.91-7.16-1.42-1.69-2.26-3.85-3.48-5.71-1.38-2.09-1.32-4.39-1.36-6.73-.06-4,2-6.7,5.26-8.65,2.89-1.73,5.9-1.23,8.91-.45a26.46,26.46,0,0,1,7.63,3.56,32.29,32.29,0,0,1,8,7.2c1.21,1.55,2.41,3.1,3.7,4.59,1.58,1.84,3.1,3.75,4.78,5.51a71.85,71.85,0,0,0,9.07,7.69c3.33,2.5,7.13,3.66,10.82,4.95A25,25,0,0,0,204,358.8a12.79,12.79,0,0,0,9-7.09c.64-1.3,1.64-2.48,2-3.84a16,16,0,0,0,.61-5.77c-.6-4.61-1.74-9.15-2.32-13.76a55.18,55.18,0,0,1-.22-9.45c.07-1.85,2.76-4.23,4.61-4.59a21.6,21.6,0,0,1,9.86.15,6.21,6.21,0,0,1,2.95,1.83,8,8,0,0,1,2.1,4,72.54,72.54,0,0,1,1,12.47,11.78,11.78,0,0,0,1,4.88c2.08,4.6,6.08,5.08,9.77,4.25a2.27,2.27,0,0,0,1.32-1,9.46,9.46,0,0,0,1-7.67,31.34,31.34,0,0,1-1.48-7.35c-.27-3.77-1.57-7.58-.55-11.43a3.67,3.67,0,0,1,6.11-1.6,9.39,9.39,0,0,1,3,7.38c-.16,2.69-.46,5.37-.78,8.05a5.09,5.09,0,0,0,2.61,4.8,37.52,37.52,0,0,0,3.85,1.66c1.84.65,5.22-.73,6.31-3.16a25.33,25.33,0,0,0,1.65-14.24,45.06,45.06,0,0,0-2.6-9.71c-.78-2.08-1.08-4.35-1.89-6.42-1.8-4.57-1.37-9.29-.94-13.94a45.86,45.86,0,0,1,2.12-8.41,39.52,39.52,0,0,1,1.57-3.89,15.08,15.08,0,0,1,5.77-6.54c2.75-1.9,6.83-.54,8.7,2.25a18.28,18.28,0,0,1,2.92,10.52,36.36,36.36,0,0,1-1.07,7.28c-.15.72-.32,1.45-.52,2.16-1.14,4.06-2.52,8-3.77,12.05-.39,1.23-.72,2.48-1,3.73-1.75,6.66-3.89,13.26-3.48,20.31.18,3.08,1,5.79,3.34,7.92a7.64,7.64,0,0,0,8.21,1.43,25.66,25.66,0,0,1,8.46-2.38,2.64,2.64,0,0,1,2.77,2.18c.51,3,.79,6,1.51,9,.83,3.3,1.86,5.54,6,5.45a17.3,17.3,0,0,0,7.83-2.26c1.88-1,3.76-2,5.71-2.82s3.9-1.91,5.95-2.6c3-1,6-1.51,9-.28a3.88,3.88,0,0,1,1.88,1.89c1.4,3.19,2,6.47.1,9.7a10.7,10.7,0,0,1-4.66,3.8c-1.23.63-2.52,1.17-4,1.84a9.56,9.56,0,0,0,1,.55A11.7,11.7,0,0,0,338.62,358a37.43,37.43,0,0,1,3.71-2.48,3.92,3.92,0,0,1,1.18-.4c2.12-.52,3.41.5,3.35,2.66,0,1-.16,2-.18,3a15.18,15.18,0,0,0,3.28,10,17.47,17.47,0,0,0,8.66,6.16c2.69.84,5.69,1.71,8.5.2a6.54,6.54,0,0,0,2.21-2.39c.72-1.15,1-2.56,1.77-3.68a5.26,5.26,0,0,1,5.41-2.33,17.19,17.19,0,0,1,3.68,1.07,5.14,5.14,0,0,0,4.05-.06c2.48-1,4.43-2.69,6.55-4.2,3.94-2.81,7.86-5.68,12-8.22,2.66-1.63,5.05-3.81,8.16-4.66a3.41,3.41,0,0,1,2-.05,17.66,17.66,0,0,1,5.69,3.49c1.77,1.66,3.9,2.93,5.75,4.51,3.12,2.67,6.21,5.4,9.2,8.22a17.43,17.43,0,0,1,3.31,4.11,5.77,5.77,0,0,1,.47,3.58,51.31,51.31,0,0,1-1.67,5.33,33.55,33.55,0,0,0-1.23,4.78,17.82,17.82,0,0,1-4,9.69c-1.53,1.73-3,3.42-5.18,4.34-2.47,1-4.95,1.66-7.62.86a3.64,3.64,0,0,0-3.47,1.07c-2.43,2.48-5,4.5-8.91,3.26-1-.33-2.12-.63-3.2-.89-3.61-.86-7.22-1.82-10.89-2.47a3.58,3.58,0,0,0-3.42,1,3.15,3.15,0,0,0-.15,4.05,47.07,47.07,0,0,0,4.47,5.18c2.78,2.65,5.91,4.95,8.59,7.7,1.92,2,3.29,4.51,2.63,7.44a15.13,15.13,0,0,1-2.08,4,20.9,20.9,0,0,1-2,2.91c-1.24,1.51-.13,3.49,1.1,4.57a25.91,25.91,0,0,1,2.86,2.78,2.79,2.79,0,0,1-1.47,4.67c-4.76.87-7.45,4.08-10,7.79-2.27,3.34-2.56,7.13-3,10.88a51.61,51.61,0,0,0-.28,7.14,19.5,19.5,0,0,1-3.18,11.82c-1.41,2-3.38,3.64-5,5.48a14.62,14.62,0,0,0-2.18,2.81,71.26,71.26,0,0,0-3.14,6.61,29,29,0,0,0-1.19,4.44c-.38,1.58-.66,3.18-1.06,4.74a2.64,2.64,0,0,1-2.5,2.09c-1.61.16-3.22.38-4.82.6-2,.27-2.92,1.32-2.75,3.27.1,1.23.5,2.42.68,3.64.23,1.67.6,3.36-.67,4.86a2.55,2.55,0,0,1-3.73.12,55.13,55.13,0,0,0-4.35-4.43c-2.18-1.85-6.14-2-8.24.36-1.6,1.82-3.73,3.23-4.6,5.65a2.06,2.06,0,0,1-.55.67c-1.07,1.06-1.39,1-2.38,0-1.46-1.58-9.27.8-10.76-.74-2-2.08,2.35-8.1.29-10.12-1.87-1.85-7.15-1.22-10,1.08a76,76,0,0,0-8.72,9.52c-1.65,2.92-2.88,11.73-6.58,9.8-4.45-2.31-.05-27.16.35-28.91.49-2.12,0-3.28,2-6.17.45-.64-.5-4.15-.83-5.91a4.1,4.1,0,0,1,0-1.44ZM285,376.33c-.08-.46-.14-.79-.2-1.11-2.48-11.83-9-20.38-20.48-24.63a46.4,46.4,0,0,0-28.82-1.07,35.2,35.2,0,0,0-21,15.42,44.3,44.3,0,0,0-6.77,20.38c-.8,8.82-.11,17.46,3.27,25.74,4.24,10.35,11.52,17.58,22.12,21.28a47.23,47.23,0,0,0,19.83,2.12,39,39,0,0,0,17.05-5.08c8.46-5,13.24-12.59,15-22.19H268.08c-2,7.25-6.66,11.5-13.85,13.07a30.21,30.21,0,0,1-10.43.36,21.48,21.48,0,0,1-16-10.26,30.46,30.46,0,0,1-4.34-13.66c-.63-6.48-.39-12.9,1.85-19.09,2.35-6.52,6.43-11.56,13-14.14a27.38,27.38,0,0,1,15.47-1.11,17.67,17.67,0,0,1,10.86,6.56,19.79,19.79,0,0,1,3.47,7.41Zm-51,35.33c.53,0,.9.08,1.26.08,4.79,0,9.58,0,14.37,0,1,0,1.34-.32,1.61-1.24a16,16,0,0,1,8.64-10.28,25.7,25.7,0,0,1,13.75-2.15c9.85.83,16.51,6,19.88,15.17a42.1,42.1,0,0,1,.63,26.62c-1.93,6.71-5.84,12-12.36,15-4.42,2-9.09,2.38-13.91,2-8.21-.65-14.49-5.55-16.7-13.44a1.23,1.23,0,0,0-1.45-1.09c-4.83,0-9.67,0-14.5,0-.37,0-.73,0-1.21.06.11.62.18,1.14.29,1.66,2.69,12,9.61,20.39,21.31,24.5a47.17,47.17,0,0,0,24.38,1.54,35.77,35.77,0,0,0,25.81-18.41,45.75,45.75,0,0,0,5.63-19.86c.67-10.12-.64-19.87-5.7-28.82A35.47,35.47,0,0,0,284.39,386a49.08,49.08,0,0,0-23-1.1c-7.79,1.36-14.62,4.68-20,10.67A32.46,32.46,0,0,0,233.92,411.66Zm90.53,4.74a4.16,4.16,0,0,0-3.54,3.19,4.78,4.78,0,0,0,3,5.76,11,11,0,0,0,7.57.44,4.85,4.85,0,0,0,3.73-4.22,4.9,4.9,0,0,0-2.25-4.93,4.55,4.55,0,0,0-6.69,5.4,14.32,14.32,0,0,0,1.53,2.53,6.66,6.66,0,0,1-4.5-1.44,2.91,2.91,0,0,1,.4-4.84C324.62,417.85,324.67,417.32,324.45,416.4Zm3.23-2.66c.82-.05,1.36-.05,1.9-.11a6,6,0,0,0,5.65-5.5c.21-3-1.59-5.34-4.8-6a14.2,14.2,0,0,0-4-.21,5.92,5.92,0,0,0-5.72,5.43c-.23,3,1.59,5.35,4.86,6.13A19.45,19.45,0,0,0,327.68,413.74Zm0,26.51c.81-.05,1.35-.06,1.89-.12a5.94,5.94,0,0,0,5.65-5.49c.2-3-1.59-5.34-4.8-6a13.89,13.89,0,0,0-4-.2,5.91,5.91,0,0,0-5.71,5.42c-.23,3,1.59,5.35,4.86,6.14A19.25,19.25,0,0,0,327.69,440.25Zm7.26,2.46H321c-.09,2,1,3.9,2.24,3.77l-.29-2.15h12Z" transform="translate(-132.2 -267.5)"/><path class="cls-1" d="M453.39,324.55a22.14,22.14,0,0,0-5,1c-1.15.51-1.95,1.84-2.86,2.83-.44.48-.72,1.23-1.58.7a1.47,1.47,0,0,1-.5-2.07c.49-1.13,1.09-2.22,1.49-3.38a27.52,27.52,0,0,0,1-3.59,20.38,20.38,0,0,1,3-7.19,5.41,5.41,0,0,1,3.55-2.3,18.75,18.75,0,0,1,7.89-.21c1.5.31,2.88,2.73,2.57,4.53a59.5,59.5,0,0,1-1.31,5.92,6.29,6.29,0,0,1-5.37,4c-.91,0-1.83,0-2.74,0Z" transform="translate(-132.2 -267.5)"/><path class="cls-1" d="M394,518.32c-4.05.45-6.46-2.08-8.68-4.86a4.21,4.21,0,0,1-.74-2.09,9.73,9.73,0,0,1,2.19-7.78,3.82,3.82,0,0,1,3.95-.7c1.38.62,2.63,1.32,4.32.47a2.63,2.63,0,0,1,3.53,2,24.15,24.15,0,0,1-.61,11.17,2.24,2.24,0,0,1-2.47,1.79C395,518.31,394.47,518.32,394,518.32Z" transform="translate(-132.2 -267.5)"/><path class="cls-1" d="M353.56,300.83a3.6,3.6,0,0,1,1.94-3.64,5.19,5.19,0,0,1,5,.21,13,13,0,0,0,2.48,1,2.39,2.39,0,0,1,1.33,3.19,42,42,0,0,1-2,5.06,2.37,2.37,0,0,1-3.54.94c-1-.59-2.08-1.14-3.09-1.76-1.59-1-2-2.56-2.12-4.26C353.59,301.33,353.58,301.08,353.56,300.83Z" transform="translate(-132.2 -267.5)"/><path class="cls-1" d="M394.24,322.85a13.26,13.26,0,0,1-.9,2.15c-.76,1.18-1.61,2.31-2.47,3.42a1.11,1.11,0,0,1-2-.38,2.2,2.2,0,0,1-.1-1.46,54.7,54.7,0,0,1,3-5.07,1.67,1.67,0,0,1,1.57-.16C393.78,321.6,393.94,322.3,394.24,322.85Z" transform="translate(-132.2 -267.5)"/><path class="cls-2" d="M285,376.33H268.09a19.79,19.79,0,0,0-3.47-7.41,17.67,17.67,0,0,0-10.86-6.56,27.38,27.38,0,0,0-15.47,1.11c-6.59,2.58-10.67,7.62-13,14.14-2.24,6.19-2.48,12.61-1.85,19.09a30.46,30.46,0,0,0,4.34,13.66,21.48,21.48,0,0,0,16,10.26,30.21,30.21,0,0,0,10.43-.36c7.19-1.57,11.89-5.82,13.85-13.07H285c-1.79,9.6-6.57,17.15-15,22.19a39,39,0,0,1-17.05,5.08A47.23,47.23,0,0,1,233,432.34c-10.6-3.7-17.88-10.93-22.12-21.28-3.38-8.28-4.07-16.92-3.27-25.74a44.3,44.3,0,0,1,6.77-20.38,35.2,35.2,0,0,1,21-15.42,46.4,46.4,0,0,1,28.82,1.07c11.45,4.25,18,12.8,20.48,24.63C284.82,375.54,284.88,375.87,285,376.33Z" transform="translate(-132.2 -267.5)"/><path class="cls-2" d="M233.92,411.66a32.46,32.46,0,0,1,7.53-16.07c5.35-6,12.18-9.31,20-10.67a49.08,49.08,0,0,1,23,1.1,35.47,35.47,0,0,1,21.26,17.05c5.06,8.95,6.37,18.7,5.7,28.82a45.75,45.75,0,0,1-5.63,19.86,35.77,35.77,0,0,1-25.81,18.41,47.17,47.17,0,0,1-24.38-1.54c-11.7-4.11-18.62-12.49-21.31-24.5-.11-.52-.18-1-.29-1.66.48,0,.84-.06,1.21-.06,4.83,0,9.67,0,14.5,0a1.23,1.23,0,0,1,1.45,1.09c2.21,7.89,8.49,12.79,16.7,13.44,4.82.38,9.49,0,13.91-2,6.52-3,10.43-8.32,12.36-15a42.1,42.1,0,0,0-.63-26.62c-3.37-9.17-10-14.34-19.88-15.17a25.7,25.7,0,0,0-13.75,2.15,16,16,0,0,0-8.64,10.28c-.27.92-.63,1.25-1.61,1.24-4.79-.05-9.58,0-14.37,0C234.82,411.74,234.45,411.7,233.92,411.66Z" transform="translate(-132.2 -267.5)"/><path class="cls-2" d="M324.45,416.4c.22.92.17,1.45-.75,1.89a2.91,2.91,0,0,0-.4,4.84,6.66,6.66,0,0,0,4.5,1.44,14.32,14.32,0,0,1-1.53-2.53,4.55,4.55,0,0,1,6.69-5.4,4.9,4.9,0,0,1,2.25,4.93,4.85,4.85,0,0,1-3.73,4.22,11,11,0,0,1-7.57-.44,4.78,4.78,0,0,1-3-5.76A4.16,4.16,0,0,1,324.45,416.4Zm9.28,4.56a3.12,3.12,0,1,0-6.23-.11,3.15,3.15,0,0,0,3.15,3.3A3,3,0,0,0,333.73,421Z" transform="translate(-132.2 -267.5)"/><path class="cls-2" d="M327.68,413.74a19.45,19.45,0,0,1-2.07-.29c-3.27-.78-5.09-3.12-4.86-6.13a5.92,5.92,0,0,1,5.72-5.43,14.2,14.2,0,0,1,4,.21c3.21.69,5,3,4.8,6a6,6,0,0,1-5.65,5.5C329,413.69,328.5,413.69,327.68,413.74Zm.49-10.34a25.05,25.05,0,0,0-2.71.48,4,4,0,0,0,0,7.76,8.15,8.15,0,0,0,5.49-.14,4,4,0,0,0,2.78-3.75A3.91,3.91,0,0,0,331,404,21.51,21.51,0,0,0,328.17,403.4Z" transform="translate(-132.2 -267.5)"/><path class="cls-2" d="M327.69,440.25a19.25,19.25,0,0,1-2.08-.29c-3.27-.79-5.09-3.12-4.86-6.14a5.91,5.91,0,0,1,5.71-5.42,13.89,13.89,0,0,1,4,.2c3.21.7,5,3,4.8,6a5.94,5.94,0,0,1-5.65,5.49C329,440.19,328.5,440.2,327.69,440.25Zm.26-1.61c.92-.18,1.8-.27,2.62-.52a3.95,3.95,0,0,0-.06-7.75,8.4,8.4,0,0,0-5.38.11,3.91,3.91,0,0,0,0,7.53A22.17,22.17,0,0,0,328,438.64Z" transform="translate(-132.2 -267.5)"/><path class="cls-2" d="M335,442.71v1.62H323l.29,2.15c-1.23.13-2.33-1.75-2.24-3.77Z" transform="translate(-132.2 -267.5)"/><path class="cls-1" d="M333.73,421a3,3,0,0,1-3.08,3.19,3.15,3.15,0,0,1-3.15-3.3,3.12,3.12,0,1,1,6.23.11Z" transform="translate(-132.2 -267.5)"/><path class="cls-1" d="M328.17,403.4A21.51,21.51,0,0,1,331,404a3.91,3.91,0,0,1,2.78,3.73A4,4,0,0,1,331,411.5a8.15,8.15,0,0,1-5.49.14,4,4,0,0,1,0-7.76A25.05,25.05,0,0,1,328.17,403.4Z" transform="translate(-132.2 -267.5)"/><path class="cls-1" d="M328,438.64a22.17,22.17,0,0,1-2.86-.63,3.91,3.91,0,0,1,0-7.53,8.4,8.4,0,0,1,5.38-.11,3.95,3.95,0,0,1,.06,7.75C329.75,438.37,328.87,438.46,328,438.64Z" transform="translate(-132.2 -267.5)"/></svg>