<svg id="Calque_1" data-name="Calque 1" xmlns="http://www.w3.org/2000/svg" viewBox="0 0 243.17 42.52"><defs><style>.cls-1{fill:#792a27;}</style></defs><title>St_Gilles_Logo_Commune_Brun</title><path class="cls-1" d="M102.79,142.22l-3-.58c-2.15-.41-3.68-1.37-3.68-3.28,0-2.42,2.83-3.28,4.74-3.28,2.46,0,5,.82,5.73,3.83h4.2c-1-5.16-4.78-7.38-9.69-7.38-4.54,0-9.35,2.36-9.35,7,0,4.19,3.21,6.18,7.13,7l3,.58c2.36.45,5.09,1.27,5.09,3.83,0,2.39-2.35,3.72-5.29,3.72-3.45,0-5.56-1.71-6.35-5.09H91c.54,5.46,4.5,8.64,10.4,8.64,4.89,0,9.83-2.53,9.83-7.55s-4.12-6.58-8.46-7.4" transform="translate(-91.02 -120.47)"/><path class="cls-1" d="M119.24,133.51h-4.06v4.85h-2.73v2.94h2.73v10.61c0,3.75.78,4.81,4.71,4.81h3v-3.1h-1.47c-1.74,0-2.18-.45-2.18-2.32v-10h3.69v-2.94h-3.69Z" transform="translate(-91.02 -120.47)"/><path class="cls-1" d="M143.4,147.44h6.32v.48c0,4.4-3.69,5.7-6.62,5.7-4.37,0-7.27-3.35-7.27-9.35s3.07-9.19,7.3-9.19a6.17,6.17,0,0,1,6.42,4.75h4.13c-1.06-5.33-4.85-8.3-10.45-8.3-7.37,0-11.87,5.06-11.87,12.74s4.23,12.9,11.26,12.9c3.41,0,6.11-1.23,7.58-3.42l.13,3h3.42V143.79H143.4Z" transform="translate(-91.02 -120.47)"/><rect class="cls-1" x="66.62" y="11.51" width="4.06" height="4.1"/><rect class="cls-1" x="66.62" y="17.89" width="4.06" height="18.36"/><rect class="cls-1" x="74.27" y="11.51" width="4.06" height="24.74"/><rect class="cls-1" x="81.91" y="11.51" width="4.06" height="24.74"/><path class="cls-1" d="M183.64,145.73a4.83,4.83,0,0,1,4.88-4.6,4.62,4.62,0,0,1,4.68,4.6Zm4.88-7.78c-5.19,0-9,3.93-9,9.46,0,5.29,3.38,9.76,9.28,9.76a8.31,8.31,0,0,0,8.33-5.94h-4c-.72,1.74-2.35,2.56-4.51,2.56-2.32,0-4.71-1.67-5-5.09h13.69c.37-6.14-3.18-10.75-8.81-10.75" transform="translate(-91.02 -120.47)"/><path class="cls-1" d="M208,145.77l-2.6-.51c-1.6-.31-2.46-1-2.46-2.19s1.64-2,3.42-2c2,0,3.58.65,4,2.32h3.82c-.75-3.69-4-5.43-7.61-5.43-4,0-7.48,2.08-7.48,5.33s2.43,4.71,5.53,5.35l2.77.55c1.8.38,3.17,1,3.17,2.53s-1.54,2.38-3.69,2.38c-2.42,0-3.75-1.05-4.13-3H198.8c.44,3.44,3.44,6,7.95,6,4.16,0,7.78-2.12,7.78-5.94,0-3.59-2.83-4.75-6.55-5.46" transform="translate(-91.02 -120.47)"/><path class="cls-1" d="M234.56,147.44h6.32v.48c0,4.4-3.69,5.7-6.62,5.7-4.37,0-7.27-3.35-7.27-9.35s3.07-9.19,7.3-9.19a6.17,6.17,0,0,1,6.42,4.75h4.13c-1.06-5.33-4.85-8.3-10.45-8.3-7.37,0-11.87,5.06-11.87,12.74s4.23,12.9,11.26,12.9c3.41,0,6.11-1.23,7.58-3.42l.13,3h3.42V143.79H234.56Z" transform="translate(-91.02 -120.47)"/><rect class="cls-1" x="157.78" y="17.89" width="4.06" height="18.36"/><rect class="cls-1" x="157.78" y="11.51" width="4.06" height="4.1"/><rect class="cls-1" x="165.42" y="11.51" width="4.06" height="24.74"/><rect class="cls-1" x="173.07" y="11.51" width="4.06" height="24.74"/><rect class="cls-1" x="180.71" y="11.51" width="4.06" height="4.1"/><rect class="cls-1" x="180.71" y="17.89" width="4.06" height="18.36"/><path class="cls-1" d="M287.57,145.77l-2.6-.51c-1.6-.31-2.46-1-2.46-2.19s1.64-2,3.42-2c2.05,0,3.58.65,4,2.32h3.83c-.75-3.69-4-5.43-7.61-5.43-4,0-7.48,2.08-7.48,5.33s2.42,4.71,5.53,5.35l2.77.55c1.8.38,3.17,1,3.17,2.53s-1.54,2.38-3.69,2.38c-2.42,0-3.75-1.05-4.13-3h-4c.45,3.44,3.45,6,8,6,4.16,0,7.78-2.12,7.78-5.94,0-3.59-2.83-4.75-6.55-5.46" transform="translate(-91.02 -120.47)"/><path class="cls-1" d="M326.06,122.16a.71.71,0,0,1,0,1.42.65.65,0,0,1-.68-.71.67.67,0,0,1,.69-.71m0,1.88a1.18,1.18,0,0,0,1.27-1.18,1.12,1.12,0,0,0-1.16-1.17,1,1,0,0,0-.85.39c0-.71.29-1.15.77-1.15a.58.58,0,0,1,.52.28h.61a1,1,0,0,0-1.08-.74c-1,0-1.4.89-1.4,1.89s.41,1.68,1.32,1.68" transform="translate(-91.02 -120.47)"/><path class="cls-1" d="M313.91,123.49h-.81v-3h-.42c-.17.39-.5.43-1,.44v.4h.87v2.12h-.87V124h2.25Z" transform="translate(-91.02 -120.47)"/><path class="cls-1" d="M319.33,120.93c.5,0,.79.43.79,1.32s-.29,1.33-.79,1.33-.8-.45-.8-1.33.29-1.32.8-1.32m0,3.11c.93,0,1.39-.72,1.39-1.79s-.46-1.78-1.39-1.78-1.39.71-1.39,1.78.45,1.79,1.39,1.79" transform="translate(-91.02 -120.47)"/><path class="cls-1" d="M332.79,120.93c.51,0,.8.43.8,1.32s-.29,1.33-.8,1.33-.79-.45-.79-1.33.29-1.32.79-1.32m0,3.11c.93,0,1.39-.72,1.39-1.79s-.46-1.78-1.39-1.78-1.39.71-1.39,1.78.46,1.79,1.39,1.79" transform="translate(-91.02 -120.47)"/><path class="cls-1" d="M317.64,153.4a5.52,5.52,0,0,0,5,3.88v3a8.54,8.54,0,0,1-7.51-5,10.77,10.77,0,0,1,2.48-1.92m2.9-2.52v-4a5.41,5.41,0,0,1,2.13-.54v7.11c-1-.78-2.13-1.93-2.13-2.54m-1.12-6.9a8.47,8.47,0,0,1,3.25-.74v2.55a6.1,6.1,0,0,0-2.26.55ZM318,140.5a19.39,19.39,0,0,1,4.7-4.69v6.91a8.91,8.91,0,0,0-3.45.78Zm5.21,16.78a5.54,5.54,0,0,0,5-3.88,10.39,10.39,0,0,1,2.47,1.92,8.51,8.51,0,0,1-7.5,5Zm0-3.2a13.16,13.16,0,0,0,2-1.84,10.7,10.7,0,0,1,2.6.91,5,5,0,0,1-4.57,3.61Zm0-7.77a5.63,5.63,0,0,1,2.13.54v4c0,.61-1.15,1.74-2.13,2.54Zm0-3.07a8.47,8.47,0,0,1,3.25.74l-1,2.36a6.1,6.1,0,0,0-2.26-.55Zm0-7.42a18.44,18.44,0,0,1,1.77,1.4,20.32,20.32,0,0,1,2.17,2.28,19.51,19.51,0,0,1,2.18,3.31,19.25,19.25,0,0,1,2.17,8.94,8.3,8.3,0,0,1-.57,3.05,11.3,11.3,0,0,0-2.55-1.92,5.93,5.93,0,0,0,.11-1.13H328a5.05,5.05,0,0,1-.08.88,11,11,0,0,0-2.38-.84,1.84,1.84,0,0,0,.33-.91v-4.12l1.27-3-.22-.1a8.76,8.76,0,0,0-3.69-.9Zm-.26,25a9.06,9.06,0,0,0,8.31-5.42h0a9,9,0,0,0,.75-3.62V132h-.51v15.2a19.67,19.67,0,0,0-1.69-4.57V132h-.51v9.69a21.34,21.34,0,0,0-1.69-2.45V132h-.51v6.63a19.6,19.6,0,0,0-1.69-1.72V132h-.51v4.46a19.11,19.11,0,0,0-1.69-1.27V132h-.51v3.19a19.86,19.86,0,0,0-5.21,5.13l-.08.12,2.65,6.32v4.12c0,1.09,2.09,2.78,2.64,3.2v2.68a5,5,0,0,1-4.62-3.8l-.08-.33-.29.16a11.27,11.27,0,0,0-2.73,2,8.3,8.3,0,0,1-.57-3.05h-.52a9,9,0,0,0,.76,3.62h0a9,9,0,0,0,8.3,5.42" transform="translate(-91.02 -120.47)"/><path class="cls-1" d="M312.18,130.06h21.49v21.69a10.75,10.75,0,0,1-21.49,0Zm-.52,21.69a11.26,11.26,0,0,0,22.52,0V129.54H311.66Z" transform="translate(-91.02 -120.47)"/></svg>