<svg id="Calque_1" data-name="Calque 1" xmlns="http://www.w3.org/2000/svg" viewBox="0 0 841.97 244.97"><defs><style>.cls-1{fill:none;}.cls-2{fill:#8c2622;}</style></defs><title>Logo_FWB_BRUN</title><rect class="cls-1" width="841.97" height="244.97"/><path class="cls-2" d="M802,356.08c-1.11-1.38-3.26-2.92-6.45-4.6l-.7-.4a13.84,13.84,0,0,1-3.38-2.19,3.06,3.06,0,0,1-.86-2.21,3,3,0,0,1,.94-2.43,4.19,4.19,0,0,1,2.83-.82,6.15,6.15,0,0,1,2.72.57,6.76,6.76,0,0,1,2.24,1.85l3.25-3.06-.33-.33a10.55,10.55,0,0,0-3.55-2.34,11.49,11.49,0,0,0-4.33-.8,8.77,8.77,0,0,0-6.1,2,7,7,0,0,0-2.25,5.49,8,8,0,0,0,.4,2.59,6.44,6.44,0,0,0,1.2,2.11,12.58,12.58,0,0,0,2.34,2.05,36,36,0,0,0,3.72,2.23l.72.38a11.67,11.67,0,0,1,3.72,2.66,4.36,4.36,0,0,1,.9,2.72,3.89,3.89,0,0,1-1.19,3,4.65,4.65,0,0,1-3.26,1.09,6.59,6.59,0,0,1-3.17-.79,13.41,13.41,0,0,1-3.22-2.69L785,365.42l.31.29a14.39,14.39,0,0,0,4.37,3.13,12.47,12.47,0,0,0,5,1,9.31,9.31,0,0,0,6.57-2.23,7.84,7.84,0,0,0,2.43-6.09,8.36,8.36,0,0,0-1.67-5.39m-36.92,8.61a1.84,1.84,0,0,0-.6.08,1.41,1.41,0,0,0-.43.26l-.14-.15a1.75,1.75,0,0,0,.24-.44,1.61,1.61,0,0,0,.08-.59v-6.48a1.5,1.5,0,0,0-.08-.54,1.61,1.61,0,0,0-.24-.47l.16-.17a1.52,1.52,0,0,0,.41.26,4,4,0,0,0,.6.08H775v-4.45H765.1a2.05,2.05,0,0,0-.57.06,1.67,1.67,0,0,0-.46.27l-.16-.17a2.34,2.34,0,0,0,.27-.51,1.51,1.51,0,0,0,.07-.5v-6a1.55,1.55,0,0,0-.08-.55,1.8,1.8,0,0,0-.24-.48l.14-.17a2.51,2.51,0,0,0,.53.28,1.51,1.51,0,0,0,.5.07h11.35l-.51-4.53h-16.4v29.36H775.9l.55-4.54Zm-24.26,0a1.84,1.84,0,0,0-.6.08,1.46,1.46,0,0,0-.41.26l-.17-.17a1.06,1.06,0,0,0,.26-.39,1.77,1.77,0,0,0,.08-.62v-24h-4.85v29.4h14.92l.72-4.54Zm-24.44,0a1.8,1.8,0,0,0-.6.08,1.5,1.5,0,0,0-.42.26l-.16-.17a1,1,0,0,0,.25-.39,1.56,1.56,0,0,0,.08-.62v-24h-4.84v29.4h14.92l.72-4.54Zm-27.5,0a1.84,1.84,0,0,0-.6.08,1.74,1.74,0,0,0-.44.26l-.13-.15a2.14,2.14,0,0,0,.24-.44,1.61,1.61,0,0,0,.08-.59v-6.48a1.5,1.5,0,0,0-.08-.54,1.9,1.9,0,0,0-.24-.47l.16-.17a1.52,1.52,0,0,0,.41.26,4,4,0,0,0,.6.08h9.91v-4.45H688.9a2.1,2.1,0,0,0-.57.06,1.7,1.7,0,0,0-.47.27l-.15-.17a4,4,0,0,0,.28-.51,1.85,1.85,0,0,0,.06-.5v-6a1.55,1.55,0,0,0-.08-.55,2.15,2.15,0,0,0-.24-.48l.13-.17a3.53,3.53,0,0,0,.53.28,1.61,1.61,0,0,0,.51.07h11.34l-.5-4.53h-16.4v29.36H699.7l.54-4.54ZM666.21,355a1.72,1.72,0,0,0-.34-.5.87.87,0,0,0-.36-.18v-.17a1,1,0,0,0,.36-.17,1.81,1.81,0,0,0,.34-.51l7.72-13.55h-5.31l-4.39,8.26a8.88,8.88,0,0,0-.73,1.61,10.75,10.75,0,0,0-.29,2H663a10.18,10.18,0,0,0-.3-1.94,8.78,8.78,0,0,0-.73-1.66l-4.4-8.26h-5.3l7.67,13.55a2.23,2.23,0,0,0,.34.48,1,1,0,0,0,.39.2v.17a.92.92,0,0,0-.39.21,2.12,2.12,0,0,0-.34.47l-8,14.28h5.34l4.65-8.94a9.36,9.36,0,0,0,.79-1.84,8.47,8.47,0,0,0,.24-1.76h.21a10.85,10.85,0,0,0,.28,1.9,9,9,0,0,0,.74,1.7l4.65,8.94h5.33Zm-22.89-15.08h-4.83v17q0,4.22-1.69,6.29a7.35,7.35,0,0,1-10.27,0q-1.69-2.07-1.69-6.29v-17H620v16.51a20.29,20.29,0,0,0,.72,5.94,9.66,9.66,0,0,0,2.24,3.87,11.21,11.21,0,0,0,3.9,2.67,12.77,12.77,0,0,0,9.57,0,11.35,11.35,0,0,0,3.91-2.67,9.76,9.76,0,0,0,2.23-3.87,19.92,19.92,0,0,0,.73-5.94Zm-39.41,17.71a5.9,5.9,0,0,0-1-1.13,8.51,8.51,0,0,0-1.41-1l.09-.15a7.64,7.64,0,0,0,1,.22,5,5,0,0,0,.83.08,5.87,5.87,0,0,0,4.61-2.17,7.89,7.89,0,0,0,1.87-5.3,7.72,7.72,0,0,0-2.44-6.14q-2.45-2.12-7.15-2.12h-7.75v29.36h4.63V358.88c0-1.1,0-1.91-.08-2.43s-.17-1.14-.31-1.83l.2-.06a15,15,0,0,0,.71,1.61,21.13,21.13,0,0,0,1.22,1.87l7.53,11.19h5.26Zm.4-6.23a5.22,5.22,0,0,1-3.56,1H597.9a1.74,1.74,0,0,0-.59.07,1.7,1.7,0,0,0-.43.26l-.16-.16a2.33,2.33,0,0,0,.34-.5,1.46,1.46,0,0,0,.09-.52V344.8a3.38,3.38,0,0,0-.18-.6,2.54,2.54,0,0,0-.25-.44l.16-.16a1.48,1.48,0,0,0,.46.26,1.81,1.81,0,0,0,.56.07h2.85a5.23,5.23,0,0,1,3.55,1,4.06,4.06,0,0,1,1.14,3.18,4.14,4.14,0,0,1-1.13,3.22M580.78,356a6.57,6.57,0,0,0-4.06-2.29v-.25a5.9,5.9,0,0,0,3.23-2.07,6.27,6.27,0,0,0,1.06-3.78,7,7,0,0,0-2.41-5.72q-2.4-2-7.07-2h-8.2v29.36h8.82a10.57,10.57,0,0,0,7.42-2.45,8.17,8.17,0,0,0,2.67-6.33,6.92,6.92,0,0,0-1.46-4.49m-5.25-5.09a4.37,4.37,0,0,1-3.15,1.06h-3.79a1.33,1.33,0,0,0-1,.36l-.17-.17.07-.1a1.78,1.78,0,0,0,.31-.94v-6.3a2.1,2.1,0,0,0-.1-.5,3.56,3.56,0,0,0-.28-.52l.17-.16a1.2,1.2,0,0,0,.43.26,2,2,0,0,0,.58.07h3.23a5.76,5.76,0,0,1,3.68.94,3.58,3.58,0,0,1,1.14,2.93,4.08,4.08,0,0,1-1.11,3.07m.89,12.95a5.62,5.62,0,0,1-3.88,1.25h-3.91a1.91,1.91,0,0,0-.56.07,3,3,0,0,0-.46.28l-.15-.18a1.7,1.7,0,0,0,.27-.46,1.81,1.81,0,0,0,.06-.55v-7.58a1.63,1.63,0,0,0-.06-.49,2.18,2.18,0,0,0-.27-.53l.15-.18a2.34,2.34,0,0,0,.46.28,1.62,1.62,0,0,0,.56.07h3.75a8.67,8.67,0,0,1,2.52.3,3.86,3.86,0,0,1,1.66,1,4.8,4.8,0,0,1,1.23,3.18,4.48,4.48,0,0,1-1.37,3.49m-24.19-7.37H542.07v4.34h10.16Zm-30.6,8.24a1.84,1.84,0,0,0-.6.08,1.54,1.54,0,0,0-.43.26l-.15-.15a1.81,1.81,0,0,0,.25-.44,1.61,1.61,0,0,0,.08-.59v-6.48a1.5,1.5,0,0,0-.08-.54,1.65,1.65,0,0,0-.25-.47l.17-.17a1.52,1.52,0,0,0,.41.26,4.18,4.18,0,0,0,.6.08h9.91v-4.45h-9.91a2.05,2.05,0,0,0-.57.06,1.54,1.54,0,0,0-.46.27l-.17-.17a2.46,2.46,0,0,0,.28-.51,1.51,1.51,0,0,0,.07-.5v-6a1.55,1.55,0,0,0-.08-.55,1.84,1.84,0,0,0-.25-.48l.15-.17a2.74,2.74,0,0,0,.52.28,1.61,1.61,0,0,0,.51.07H533l-.5-4.53h-16.4v29.36h16.36l.54-4.54Zm-17.54-24.86h-4.82v29.4h4.82Zm-16.81,0h-4.66v18a17.11,17.11,0,0,0,.21,2.62c.14.91.37,2,.68,3.28l-.21,0a26.77,26.77,0,0,0-1.12-2.84,16.92,16.92,0,0,0-1.29-2.25l-13-18.89H463.6v29.36h4.67V351.15a15.11,15.11,0,0,0-.18-2.32c-.11-.77-.35-1.95-.71-3.54l.21,0a28.2,28.2,0,0,0,1.15,2.92A15.36,15.36,0,0,0,470,350.3L483,369.23h4.33Zm-38,3.69a14.29,14.29,0,0,0-10.7-4.24,13.84,13.84,0,0,0-10.46,4.3,16.57,16.57,0,0,0,0,21.86,15.23,15.23,0,0,0,21.15,0,16.58,16.58,0,0,0,0-21.92m-3.45,18.68a10.18,10.18,0,0,1-14.25,0,12.32,12.32,0,0,1,0-15.42,10,10,0,0,1,14.21,0,12.28,12.28,0,0,1,0,15.39m-38.22,2.45a1.87,1.87,0,0,0-.61.08,1.46,1.46,0,0,0-.41.26l-.16-.17a1.16,1.16,0,0,0,.25-.39,1.77,1.77,0,0,0,.08-.62v-24h-4.84v29.4h14.91l.73-4.54Zm-24.45,0a1.84,1.84,0,0,0-.6.08,1.23,1.23,0,0,0-.41.26l-.17-.17a1.39,1.39,0,0,0,.26-.39,1.83,1.83,0,0,0,.07-.62v-24h-4.84v29.4H392.4l.72-4.54Zm-25.08-24.82h-4.21l-10.67,29.36h4.84l3.13-8.81h9.66l3.1,8.81h4.82Zm1.61,16.43a2,2,0,0,0-.43-.12,2.41,2.41,0,0,0-.5-.05H353.2a2.65,2.65,0,0,0-.44,0,2.13,2.13,0,0,0-.47.13l-.14-.21a1.59,1.59,0,0,0,.29-.29,1.41,1.41,0,0,0,.19-.39l2.79-8.05a7.46,7.46,0,0,0,.3-1.46c.07-.62.12-1.34.15-2.14h.23c0,.8.08,1.52.15,2.14a6.7,6.7,0,0,0,.31,1.46l2.75,8.05a1.18,1.18,0,0,0,.19.39,1.85,1.85,0,0,0,.32.29Zm-25.94-16.43-5.54,19.29a16.09,16.09,0,0,0-.46,2.06c-.08.61-.14,1.6-.18,3h-.25c-.14-1.42-.26-2.43-.37-3a17.23,17.23,0,0,0-.52-2l-5.05-14.89-5,14.92a13.13,13.13,0,0,0-.54,1.95c-.11.61-.23,1.62-.37,3h-.25c0-1.38-.1-2.36-.17-3a14.25,14.25,0,0,0-.47-2.06L309,339.87h-5.13l8.89,29.36h4.37l3.66-11.73a10,10,0,0,0,.28-1.55c.08-.66.13-1.47.18-2.43h.2c0,.95.1,1.75.18,2.41a8.23,8.23,0,0,0,.3,1.58l3.68,11.73H330l8.94-29.36Z" transform="translate(0.08 -175.16)"/><path class="cls-2" d="M802.91,267.32h-8.45v32.76a31.64,31.64,0,0,0,.38,4.76q.38,2.46,1.24,6l-.38.07a50.3,50.3,0,0,0-2.05-5.14,30.67,30.67,0,0,0-2.35-4.1l-23.55-34.3H759.9v53.31h8.49V287.8a28.52,28.52,0,0,0-.32-4.21c-.22-1.4-.64-3.54-1.3-6.42l.38-.08a55.17,55.17,0,0,0,2.09,5.3,27.13,27.13,0,0,0,2.31,3.87l23.51,34.37h7.85ZM734.42,274q-7.51-7.71-19.43-7.72-11.54,0-19,7.81t-7.46,19.81q0,12.12,7.47,19.89t19.2,7.76q11.68,0,19.2-7.76T741.93,294q0-12.24-7.51-20m-6.26,33.91q-4.9,5.28-12.94,5.29t-12.94-5.29q-4.9-5.31-4.91-14t4.94-14a16.92,16.92,0,0,1,13-5.31A16.6,16.6,0,0,1,728.12,280q4.95,5.4,4.94,13.93,0,8.7-4.9,14M670,267.25h-8.76v53.38H670Zm-25.88.07H612.59l-1.12,8h11a3.43,3.43,0,0,0,1.09-.13,2.35,2.35,0,0,0,.74-.47l.34.3a3.72,3.72,0,0,0-.52,1,2.82,2.82,0,0,0-.12.89v43.76h8.64V276.87a3.22,3.22,0,0,0-.12-1,3.83,3.83,0,0,0-.47-.88l.3-.3a3.51,3.51,0,0,0,.83.51,2.86,2.86,0,0,0,1,.13h11.08Zm-58.56,0H578l-19.39,53.31h8.8l5.67-16h17.55l5.63,16H605Zm2.93,29.83a5.59,5.59,0,0,0-.79-.22,4.62,4.62,0,0,0-.9-.08H576.71a4.35,4.35,0,0,0-.8.06,6.15,6.15,0,0,0-.85.24l-.26-.37a2.58,2.58,0,0,0,.52-.53,2.47,2.47,0,0,0,.34-.71l5.07-14.62a12.27,12.27,0,0,0,.55-2.65c.14-1.13.23-2.43.28-3.88H582c0,1.45.15,2.75.28,3.88a12.27,12.27,0,0,0,.55,2.65l5,14.62a2.24,2.24,0,0,0,.35.71,2.77,2.77,0,0,0,.58.53Zm-57.23,2.33a10.92,10.92,0,0,0-1.84-2,16.89,16.89,0,0,0-2.55-1.83l.15-.26c.65.17,1.24.31,1.76.4a10,10,0,0,0,1.51.13,10.62,10.62,0,0,0,8.35-3.93,14.17,14.17,0,0,0,3.4-9.63q0-7.29-4.43-11.14t-13-3.86H510.59v53.31H519V301.85a43,43,0,0,0-.16-4.43,27.24,27.24,0,0,0-.56-3.31l.38-.11a22.75,22.75,0,0,0,1.29,2.91,38.3,38.3,0,0,0,2.2,3.4l13.68,20.32h9.54Zm.71-11.32c-1.37,1.24-3.53,1.86-6.46,1.86h-5.18a3.18,3.18,0,0,0-1.07.13,2.53,2.53,0,0,0-.77.47l-.3-.3a3.34,3.34,0,0,0,.62-.91,2.45,2.45,0,0,0,.17-.93V276.27a6.41,6.41,0,0,0-.32-1.07,3.77,3.77,0,0,0-.47-.81l.3-.3a3,3,0,0,0,.83.49,3.56,3.56,0,0,0,1,.11h5.18c2.91,0,5.05.62,6.44,1.86s2.09,3.16,2.09,5.77-.68,4.6-2.07,5.84m-58.41-37.25-3.68,10.33h6.46l6.91-10.33Zm-2,61.5a3.43,3.43,0,0,0-1.09.13,2.63,2.63,0,0,0-.79.46l-.25-.26a4,4,0,0,0,.44-.81,3,3,0,0,0,.15-1.07V299.11a3,3,0,0,0-.15-1,3.75,3.75,0,0,0-.44-.84l.28-.31a2.69,2.69,0,0,0,.76.46,5.13,5.13,0,0,0,1.09.15h18v-8.08h-18a3.78,3.78,0,0,0-1,.11,3,3,0,0,0-.85.49l-.3-.3a4.18,4.18,0,0,0,.5-.94,2.66,2.66,0,0,0,.14-.9V277.09a3,3,0,0,0-.15-1,5.23,5.23,0,0,0-.44-.89l.25-.29a4.24,4.24,0,0,0,1,.5,2.84,2.84,0,0,0,.92.13h20.59l-.9-8.23H461.49v53.31H491.2l1-8.22ZM435.8,274.84q-8-7.51-20.21-7.52H401.27v53.31h14q12.66,0,20.57-7.55A25.25,25.25,0,0,0,443.77,294q0-11.65-8-19.16m-6.12,32.55a19.39,19.39,0,0,1-13.94,5.24h-4.21a4,4,0,0,0-1.09.11,2.32,2.32,0,0,0-.75.49l-.34-.3a2.08,2.08,0,0,0,.53-.75,4,4,0,0,0,.11-1.09V276.87a2.8,2.8,0,0,0-.13-.94,3.93,3.93,0,0,0-.51-.9l.34-.34a3.72,3.72,0,0,0,.83.51,2.86,2.86,0,0,0,1,.13h4.62a18.69,18.69,0,0,1,13.6,5.28,19.19,19.19,0,0,1-.07,26.78M364.2,250.91l-3.68,10.33H367l6.91-10.33Zm-2,61.5a3.39,3.39,0,0,0-1.09.13,2.52,2.52,0,0,0-.79.46l-.26-.26a3.29,3.29,0,0,0,.45-.81,3,3,0,0,0,.15-1.07V299.11a3,3,0,0,0-.15-1,3.12,3.12,0,0,0-.45-.84l.3-.31a2.41,2.41,0,0,0,.75.46,5.13,5.13,0,0,0,1.09.15h18v-8.08h-18a3.78,3.78,0,0,0-1,.11,3.11,3.11,0,0,0-.85.49l-.3-.3a4.78,4.78,0,0,0,.51-.94,2.67,2.67,0,0,0,.13-.9V277.09a3,3,0,0,0-.15-1,4.14,4.14,0,0,0-.45-.89l.26-.29a4.46,4.46,0,0,0,1,.5,2.84,2.84,0,0,0,.92.13h20.58l-.9-8.23H352.11v53.31h29.71l1-8.22Zm-27.56-45.09h-30v53.31h8.8V299.11a3.42,3.42,0,0,0-.13-1,4.12,4.12,0,0,0-.47-.84l.3-.3a3.69,3.69,0,0,0,.82.51,3,3,0,0,0,1,.13h17.84v-8.08h-18a4,4,0,0,0-1.13.11,3.66,3.66,0,0,0-.75.45l-.3-.26a3.9,3.9,0,0,0,.64-.94,2.42,2.42,0,0,0,.15-.9V277.17a5.73,5.73,0,0,0-.3-1.13,3,3,0,0,0-.49-.71l.34-.3a3.17,3.17,0,0,0,.82.49,3.69,3.69,0,0,0,1,.11H336Z" transform="translate(0.08 -175.16)"/><path class="cls-2" d="M68.88,213.87c-5.75,0-9.67,3.16-9.9,5.3-.24,2.37,1.29,4.68,3.36,6.27,15.19,11.72-28.64,34.52-23.24,81,3.84,32.85,42.16,77.65,50.06,77.65a1.31,1.31,0,0,0,.76-.21C96,380,72,336.93,66.45,322.74c-12.24-31.88,6.24-52.26,13.45-64.12,9.47-15.59,11.78-30.36,4.38-37.48-5.63-5.46-11-7.27-15.4-7.27" transform="translate(0.08 -175.16)"/><path class="cls-2" d="M177.39,226.86l-1.57,0c-55.82,2.47-64,70-64.13,94.49,0,2.11.16,12.82-2.33,12.82-.5,0-1.12-.44-1.87-1.49-2.9-4.09-11.19-16-13.66-19.17a3.32,3.32,0,0,0-2.62-1.37c-2,0-3.86,2-3,6.1.43,2.07,6,25.14,13.93,34.63,2.29,2.76,7.55,6.64,13,6.64,5.29,0,10.76-3.67,13.84-15.65,5.32-18.52-1-92.18,62.6-100.6a6.18,6.18,0,0,0,4-10c-2.1-2.45-8.49-6.4-18.2-6.4" transform="translate(0.08 -175.16)"/><path class="cls-2" d="M211.45,292.91c-2-.62-2.1-1.85-.62-4,2.54-3.74,12.92-26.3.13-38.15a16.06,16.06,0,0,0-3.86-2.66c-2.34-1.11-5.3.08-5.26,4,.3,28.62-14,34.1-33.91,34.32h-2.37v13.14l17.67,1.21.32,0c19.09,1.48,30.58,13.93,30.58,28.27,0,17.24-14.52,28.38-30.58,28.38-5.32,0-10.79-1.08-15.21-3.81-.83-.52-2-1.32-2.83-2,0,2.23,0,28.06,0,28.06a49.89,49.89,0,0,0,21.94,4.56c25.69,0,57.83-18.69,57.83-51.35,0-17-14.31-33.9-33.85-40" transform="translate(0.08 -175.16)"/></svg>